<?xml version="1.0" standalone="no"?>
<!DOCTYPE svg PUBLIC "-//W3C//DTD SVG 20010904//EN"
 "http://www.w3.org/TR/2001/REC-SVG-20010904/DTD/svg10.dtd">
<svg version="1.0" xmlns="http://www.w3.org/2000/svg"
 width="200.000000pt" height="252.000000pt" viewBox="0 0 200.000000 252.000000"
 preserveAspectRatio="xMidYMid meet">

<g transform="translate(0.000000,252.000000) scale(0.100000,-0.100000)"
fill="#111827" stroke="none">
<path d="M895 2514 c-397 -36 -693 -277 -795 -649 -18 -64 -23 -117 -27 -262
l-5 -183 34 0 c44 0 48 -5 34 -35 -8 -18 -19 -25 -38 -25 -16 0 -28 -3 -28 -7
0 -22 26 -73 37 -73 7 0 13 -4 13 -10 0 -5 -6 -7 -14 -4 -8 3 -17 1 -21 -5 -3
-6 -2 -11 3 -11 5 0 12 -8 16 -18 3 -9 17 -35 30 -57 14 -22 28 -47 31 -55 4
-8 11 -24 15 -35 19 -43 39 -170 28 -176 -6 -4 -8 -18 -4 -33 4 -17 2 -26 -5
-26 -8 0 -10 -12 -6 -37 9 -50 -12 -73 -59 -66 -40 7 -78 -20 -71 -49 3 -10 1
-18 -3 -18 -5 0 -12 -10 -15 -22 -4 -13 -13 -37 -22 -54 -20 -39 -11 -81 21
-95 l24 -11 -31 -28 c-30 -26 -31 -31 -35 -123 -4 -98 16 -227 41 -261 10 -13
37 -17 157 -20 80 -3 217 -14 305 -25 368 -48 538 -49 920 -9 143 14 235 19
321 15 141 -7 166 2 207 75 29 51 53 195 42 264 -5 38 -12 48 -45 69 -37 23
-39 26 -28 55 8 24 7 35 -6 55 -9 13 -16 33 -16 43 0 11 -7 25 -15 32 -8 7
-15 23 -15 35 0 34 -24 49 -69 41 -30 -5 -42 -2 -56 14 -31 34 -50 234 -26
278 8 15 8 21 -2 25 -9 3 -7 10 6 24 10 11 17 25 15 31 -4 14 49 72 67 72 9 0
15 9 15 23 0 13 4 27 9 33 7 7 41 138 41 160 0 4 -20 4 -44 1 -34 -5 -45 -3
-50 9 -9 23 -9 22 27 26 l32 3 3 140 c3 164 -8 245 -50 372 -112 338 -413 562
-788 586 -36 2 -83 3 -105 1z m230 -151 c170 -43 332 -153 427 -291 108 -157
178 -434 132 -523 l-15 -30 -35 45 c-25 33 -34 55 -34 83 -1 164 -119 399
-257 508 -249 199 -579 190 -803 -22 -121 -114 -197 -262 -228 -447 -16 -91
-44 -166 -63 -166 -4 0 -17 16 -29 36 -20 31 -22 44 -16 102 39 386 300 673
656 723 70 9 188 2 265 -18z m-4 -113 c157 -48 296 -173 373 -332 65 -135 80
-200 80 -349 1 -107 -2 -130 -16 -146 -18 -20 -25 -73 -10 -73 5 0 16 -6 26
-13 18 -13 18 -16 -7 -58 -14 -24 -29 -60 -32 -79 -9 -52 -15 -70 -26 -70 -5
0 -9 -9 -9 -20 0 -11 -5 -20 -10 -20 -6 0 -1 -18 10 -40 l21 -41 -21 -26 c-22
-28 -27 -68 -9 -79 8 -4 7 -9 -2 -15 -11 -8 -10 -12 6 -24 15 -12 19 -27 18
-66 0 -28 -6 -55 -13 -59 -8 -5 -7 -9 4 -13 9 -4 13 -12 11 -19 -3 -8 14 -23
42 -38 34 -18 47 -30 45 -43 -2 -10 2 -25 9 -33 9 -11 7 -14 -10 -14 -14 0
-23 -8 -27 -27 -12 -46 5 -58 82 -57 96 2 63 -8 -161 -50 -482 -90 -531 -90
-890 3 -82 22 -178 45 -211 51 -61 12 -61 13 -43 31 10 10 19 24 19 30 0 20
-21 49 -36 49 -10 0 -12 5 -7 12 4 7 8 24 9 38 0 14 2 37 2 51 1 17 11 30 27
37 25 11 35 42 14 42 -5 0 -3 10 5 22 19 27 22 63 4 52 -10 -6 -10 -4 0 8 7 9
15 50 18 92 4 61 2 75 -9 70 -10 -4 -13 3 -9 26 4 25 1 29 -12 24 -14 -5 -16
-2 -11 19 4 14 2 34 -4 44 -8 14 -11 15 -11 3 -1 -20 -30 60 -30 84 0 11 -5
16 -14 13 -11 -5 -14 4 -13 39 2 35 6 46 22 50 29 9 55 35 55 54 0 10 -8 28
-19 41 -25 32 -30 84 -20 199 11 124 30 197 79 295 138 281 427 414 711 325z
m-903 -725 c30 -47 28 -55 -11 -55 -19 0 -55 -6 -80 -14 l-47 -14 0 54 c0 30
2 54 5 54 2 0 11 -13 20 -30 9 -16 19 -30 23 -30 4 0 18 16 32 35 14 19 27 35
30 35 3 0 15 -16 28 -35z m1420 0 c12 -19 26 -35 30 -35 5 0 16 16 26 36 l17
37 33 -32 c17 -17 35 -31 38 -31 3 0 15 15 27 33 l21 32 0 -63 0 -62 -27 6
c-22 4 -25 3 -13 -5 12 -9 9 -11 -14 -11 -23 0 -26 3 -17 14 10 12 2 15 -48
21 -33 4 -64 4 -70 1 -24 -15 -41 6 -39 50 2 24 5 44 8 44 3 0 15 -16 28 -35z
m-1338 -19 c0 -41 -1 -43 -25 -38 -14 2 -25 6 -25 8 0 5 44 74 48 74 1 0 2
-20 2 -44z m10 -75 c15 -11 25 -28 25 -42 0 -23 -4 -24 -70 -27 -38 -2 -79 -1
-92 2 -21 6 -21 7 -5 46 14 31 23 40 47 43 40 5 65 -1 95 -22z m-150 9 c0 -5
-9 -10 -20 -10 -11 0 -20 5 -20 10 0 6 9 10 20 10 11 0 20 -4 20 -10z m1555 2
c13 -9 48 -63 43 -67 -2 -1 -42 -5 -90 -7 l-88 -4 0 28 c0 23 7 32 33 43 35
15 86 19 102 7z m141 -94 c-3 -7 -7 -25 -10 -41 -6 -24 -9 -26 -27 -16 -12 6
-29 9 -38 6 -10 -2 -26 2 -36 9 -29 22 -108 18 -139 -7 l-27 -21 17 36 17 35
76 4 c42 1 97 4 123 5 34 1 46 -2 44 -10z m-1666 -7 c0 -5 -6 -14 -14 -20 -11
-10 -23 -8 -53 8 l-38 20 53 1 c28 0 52 -4 52 -9z m90 -10 c0 -5 2 -16 5 -24
4 -8 0 -14 -10 -14 -8 0 -15 9 -15 20 0 16 -3 17 -15 7 -12 -10 -15 -10 -15 4
0 10 9 16 25 16 14 0 25 -4 25 -9z m-125 -41 c8 -13 -11 -13 -36 1 -11 5 -17
14 -14 20 7 10 39 -4 50 -21z m65 23 c0 -5 -7 -16 -14 -26 -16 -20 -32 -6 -22
18 5 15 36 21 36 8z m1513 -17 c18 -8 46 -16 62 -18 35 -3 46 -36 20 -58 -12
-10 -15 -10 -15 5 0 16 -2 16 -25 1 -19 -13 -30 -14 -45 -6 -17 9 -22 7 -32
-15 -6 -14 -15 -25 -20 -25 -4 0 -8 -7 -8 -15 0 -21 -18 -19 -32 5 -8 12 -19
18 -33 14 -11 -3 -29 2 -40 9 -17 13 -18 18 -7 41 6 14 18 26 27 26 8 0 15 5
15 10 0 13 56 39 83 40 11 0 33 -7 50 -14z m-1483 -15 c0 -12 -29 -35 -36 -28
-11 10 5 37 21 37 8 0 15 -4 15 -9z m25 -30 c3 -5 -5 -17 -17 -25 -27 -19 -46
1 -20 21 21 15 29 16 37 4z m-128 -7 c-3 -3 -12 -4 -19 -1 -8 3 -5 6 6 6 11 1
17 -2 13 -5z m34 -40 c11 -14 10 -15 -11 -12 -13 1 -25 9 -28 16 -5 17 23 15
39 -4z m110 -18 c-17 -16 -23 -18 -33 -7 -11 10 -9 15 5 26 11 7 26 11 34 8
12 -5 11 -9 -6 -27z m1449 14 c13 -7 21 -7 25 0 10 16 28 12 22 -4 -4 -11 -1
-13 10 -9 11 4 14 2 9 -5 -4 -7 -12 -12 -17 -12 -6 0 -22 -13 -35 -30 -22 -26
-28 -28 -40 -16 -7 8 -19 16 -25 18 -7 2 -4 15 8 36 21 36 18 35 43 22z m-165
-30 c4 -6 16 -8 27 -4 13 4 24 1 29 -7 15 -24 10 -28 -32 -31 -30 -2 -45 -9
-53 -23 -13 -23 -27 -35 -41 -35 -5 0 -3 4 5 10 8 5 11 12 8 16 -4 4 -1 16 7
28 8 11 15 28 15 38 0 19 25 25 35 8z m-1357 -29 c3 -8 -4 -12 -19 -9 -13 1
-25 11 -27 20 -3 15 1 16 19 9 13 -4 25 -13 27 -20z m98 7 c7 -10 -20 -38 -38
-38 -12 0 -10 24 4 38 15 15 25 15 34 0z m1394 -45 l22 -28 -43 -12 c-27 -8
-46 -9 -54 -3 -7 6 -19 4 -33 -6 -12 -8 -26 -13 -31 -9 -5 3 -12 1 -16 -5 -9
-15 -35 -12 -35 4 0 8 9 18 21 21 12 4 18 12 15 21 -7 18 23 33 55 27 15 -3
30 0 33 6 12 20 44 12 66 -16z m-1378 -26 c-19 -19 -24 -20 -32 -7 -13 20 27
57 44 40 7 -7 3 -17 -12 -33z m-92 8 c7 -9 10 -19 6 -22 -8 -9 -38 9 -44 25
-5 17 23 15 38 -3z m127 -41 c3 -9 -37 -34 -52 -34 -13 0 -3 30 13 39 19 12
34 10 39 -5z m-106 -25 c5 -11 6 -19 2 -19 -16 0 -53 31 -48 40 8 13 34 1 46
-21z m1441 6 c15 -25 -4 -40 -33 -25 -14 8 -43 10 -81 6 -63 -6 -81 9 -23 20
19 3 37 9 40 13 9 15 88 3 97 -14z m-1318 -24 c3 -5 -8 -14 -24 -20 -23 -8
-30 -7 -30 3 0 7 3 16 7 19 9 10 41 8 47 -2z m-113 -32 c11 -22 6 -24 -22 -9
-23 13 -26 42 -4 34 9 -4 20 -15 26 -25z m1402 9 c12 -6 16 -16 12 -25 -3 -9
-1 -19 5 -23 18 -11 -1 -40 -26 -40 -17 0 -24 6 -24 20 0 13 -5 18 -15 13 -9
-3 -21 2 -28 11 -11 15 -17 16 -42 4 -17 -7 -33 -17 -36 -22 -10 -13 -29 3
-29 24 0 22 44 55 59 45 6 -3 19 -1 28 4 19 11 65 6 96 -11z m-1297 -29 c3 -6
0 -15 -7 -20 -22 -13 -49 -11 -49 5 0 23 43 35 56 15z m-106 -30 c7 -11 9 -23
6 -26 -8 -9 -47 28 -40 38 9 15 23 10 34 -12z m1349 -15 c6 4 11 3 11 -2 0
-13 -27 -23 -44 -16 -8 3 -24 -4 -35 -15 -17 -17 -21 -17 -31 -6 -10 12 -5 21
21 45 l34 30 16 -21 c9 -12 21 -19 28 -15z m-1244 -14 c7 -11 -42 -37 -51 -27
-4 3 -4 13 -1 22 7 17 42 21 52 5z m-117 -38 c3 -21 1 -22 -17 -12 -26 13 -28
43 -3 38 9 -2 18 -14 20 -26z m1411 17 c26 -9 32 -16 27 -33 -3 -11 -6 -25 -6
-29 0 -5 -9 -5 -21 -2 -12 4 -27 1 -37 -8 -9 -8 -28 -17 -42 -20 -14 -3 -35
-9 -47 -12 -20 -6 -23 -4 -23 21 1 39 41 88 66 80 11 -3 26 -1 34 4 18 12 11
12 49 -1z m-1299 -43 c0 -8 -13 -19 -30 -25 -26 -9 -30 -8 -30 9 0 10 6 21 13
23 24 10 47 7 47 -7z m-136 -12 c16 -6 23 -44 8 -44 -12 0 -32 23 -32 37 0 15
2 15 24 7z m1461 -92 c-18 -30 -23 -32 -57 -26 -31 5 -38 3 -38 -10 0 -9 -3
-16 -8 -16 -15 0 -52 32 -47 40 3 5 0 12 -6 16 -16 10 28 33 64 34 15 0 27 3
27 8 1 23 18 34 38 23 18 -9 22 -8 28 12 7 20 9 19 14 -13 4 -25 0 -44 -15
-68z m-1428 51 c-3 -10 -5 -4 -5 12 0 17 2 24 5 18 2 -7 2 -21 0 -30z m79 -4
c8 -13 -13 -29 -40 -29 -18 0 -18 1 -1 20 21 23 31 25 41 9z m-96 -53 c0 -3
-13 0 -30 5 -33 12 -36 19 -19 36 9 9 17 6 30 -12 11 -13 19 -26 19 -29z
m1500 -6 c0 -7 -53 -30 -67 -30 -2 0 5 14 17 30 18 25 25 28 36 19 8 -6 14
-15 14 -19z m-1560 4 c22 -9 40 -20 40 -25 0 -12 -102 -11 -135 1 -23 9 -25
13 -15 25 16 20 60 19 110 -1z m134 -18 c-3 -8 -13 -12 -25 -9 -27 7 -24 23 6
23 17 0 23 -4 19 -14z m1534 -17 c2 -10 -6 -19 -20 -23 -37 -9 -128 -7 -128 4
0 6 1 10 3 10 1 0 20 7 42 15 50 18 99 16 103 -6z m-209 -15 c-32 -18 -39 -17
-39 4 0 15 6 18 31 14 l32 -5 -24 -13z m-1448 -25 c47 -14 56 -49 13 -49 -46
0 -164 31 -164 44 0 35 44 36 151 5z m108 12 c7 -5 9 -11 4 -14 -10 -6 -81 7
-90 17 -10 9 71 7 86 -3z m1391 5 c0 -2 -7 -7 -16 -10 -8 -3 -12 -2 -9 4 6 10
25 14 25 6z m20 -31 c0 -9 -83 -26 -99 -20 -14 6 -14 8 4 15 21 9 95 13 95 5z
m168 -17 c2 -13 -12 -20 -67 -32 -96 -22 -121 -21 -121 4 0 11 3 20 8 20 4 1
30 7 57 15 65 18 119 15 123 -7z m-1611 6 c-3 -3 -12 -4 -19 -1 -8 3 -5 6 6 6
11 1 17 -2 13 -5z m-125 -42 c60 -15 65 -19 54 -34 -18 -24 -147 -26 -170 -2
-18 17 -19 24 -10 49 7 18 6 18 126 -13z m205 2 c1 -5 -1 -15 -6 -23 -8 -13
-15 -13 -52 -1 l-43 15 39 11 c43 13 57 13 62 -2z m1333 6 c0 -5 -7 -7 -15 -4
-8 4 -15 8 -15 10 0 2 7 4 15 4 8 0 15 -4 15 -10z m218 -27 c10 -20 5 -44 -12
-55 -18 -13 -151 -9 -164 4 -20 20 -14 26 30 33 23 4 58 13 78 21 48 17 58 17
68 -3z m-262 -9 l25 -6 -27 -14 c-31 -17 -51 -18 -59 -4 -11 18 4 43 21 36 9
-3 27 -9 40 -12z m-1336 -168 c35 -43 -28 -99 -70 -61 -36 33 -19 75 31 75 15
0 32 -7 39 -14z m1448 -18 c28 -28 7 -78 -33 -78 -27 0 -45 18 -45 45 0 27 18
45 45 45 12 0 26 -5 33 -12z m-1218 -29 c35 -11 68 -25 71 -31 19 -30 -33
-168 -62 -168 -37 0 -141 34 -147 48 -13 34 40 172 66 172 4 0 36 -9 72 -21z
m925 -54 c0 -17 -10 -22 -57 -29 -80 -13 -73 -26 11 -19 l68 6 12 -33 c15 -43
14 -67 -2 -73 -8 -3 -49 -11 -91 -18 -67 -11 -79 -11 -87 1 -12 20 -7 44 11
47 8 1 36 5 63 8 71 9 57 26 -20 23 -65 -3 -66 -3 -74 25 -4 16 -5 36 -2 44 9
24 64 43 118 40 43 -2 50 -5 50 -22z m-556 -1 c27 -6 32 -11 29 -33 -3 -28 -3
-28 -85 -17 -31 4 -53 3 -53 -3 0 -5 25 -12 57 -16 31 -4 62 -9 70 -12 17 -7
17 -35 -1 -78 -14 -34 -17 -35 -68 -35 -59 0 -128 16 -128 30 0 35 12 40 83
33 52 -4 68 -3 63 5 -4 7 -29 12 -55 12 -53 0 -71 12 -71 50 0 47 26 70 79 70
27 0 63 -3 80 -6z m273 -91 c4 -83 0 -93 -43 -93 -24 0 -27 5 -33 46 -14 107
-9 122 45 123 26 1 27 0 31 -76z"/>
<path d="M634 2124 c-16 -24 -19 -49 -19 -164 l0 -135 -49 -65 c-58 -78 -96
-151 -96 -183 0 -47 71 -89 209 -123 69 -18 74 -21 93 -59 30 -58 71 -115 113
-156 32 -33 36 -41 33 -82 l-3 -45 -155 83 -155 84 -16 73 c-29 134 -24 125
-81 142 -29 8 -53 14 -54 13 -1 -1 54 -329 66 -384 0 -2 46 -32 103 -69 56
-36 103 -68 105 -69 2 -2 -4 -27 -12 -56 -9 -29 -16 -54 -16 -55 0 -1 28 -5
63 -9 116 -12 114 -10 114 -60 0 -25 -3 -45 -6 -45 -3 0 -31 7 -61 15 -30 8
-87 15 -127 15 l-71 0 -41 -123 c-35 -103 -40 -128 -31 -153 l10 -29 103 0
c101 0 103 -1 187 -43 97 -49 124 -53 171 -24 65 39 172 64 259 60 l80 -3 11
32 c8 26 4 50 -27 152 l-38 121 -80 0 c-45 0 -106 -6 -137 -13 l-56 -14 2 51
c1 42 5 51 21 53 10 1 49 5 85 8 l66 6 -19 56 c-10 31 -17 57 -16 58 2 0 50
32 108 70 l105 69 32 190 c18 105 31 191 30 193 -2 1 -26 -5 -55 -14 l-51 -17
-22 -98 -22 -98 -156 -85 -156 -85 -3 50 c-3 47 -1 51 43 91 25 23 66 75 92
116 33 52 54 75 72 79 131 28 231 75 245 115 12 34 -23 111 -91 201 l-51 66 5
124 c10 213 -23 234 -248 158 l-86 -29 -89 31 c-49 17 -117 33 -150 36 -59 4
-63 3 -80 -24z m181 -20 c81 -25 126 -47 122 -58 -2 -6 -17 -49 -32 -96 -16
-47 -34 -90 -42 -96 -8 -7 -53 -11 -116 -10 l-102 1 -9 82 c-10 94 -2 166 21
189 19 19 74 14 158 -12z m427 17 c3 -1 12 -18 19 -38 15 -47 5 -223 -13 -235
-7 -4 -56 -8 -110 -8 l-96 0 -36 107 c-20 59 -33 110 -28 114 22 22 204 69
242 63 8 -1 18 -3 22 -3z m-253 -330 c-18 -23 -35 -41 -38 -41 -5 0 -50 63
-59 82 -2 3 11 48 29 98 l32 92 35 -95 34 -96 -33 -40z m-97 -5 c15 -19 29
-39 30 -46 2 -6 -19 -20 -45 -30 l-48 -18 -62 50 c-103 84 -103 78 3 78 l95 0
27 -34z m318 20 c-8 -8 -41 -36 -73 -64 l-58 -50 -45 15 c-24 8 -47 19 -50 24
-3 5 9 27 26 49 l32 40 91 0 c78 0 89 -2 77 -14z m-475 -67 c41 -34 75 -68 75
-75 0 -8 -14 -56 -30 -108 l-30 -94 -43 9 c-123 27 -217 72 -217 105 0 44 132
239 156 230 7 -3 47 -33 89 -67z m586 -1 c60 -86 92 -150 83 -172 -8 -22 -99
-64 -183 -86 -65 -16 -71 -17 -75 -1 -3 9 -17 56 -31 104 l-27 89 44 36 c23
20 59 52 78 69 19 18 41 33 47 33 7 0 36 -33 64 -72z m-381 -86 l0 -58 -80
-57 c-44 -31 -80 -55 -80 -54 0 1 13 43 29 92 29 89 30 90 78 112 26 12 49 22
51 22 1 1 2 -25 2 -57z m125 16 c2 -3 13 -39 52 -172 3 -12 -22 2 -76 43 l-81
62 0 54 0 55 51 -20 c28 -10 52 -20 54 -22z m-24 -158 c43 -34 79 -66 79 -72
0 -19 -90 -146 -126 -177 -19 -17 -43 -31 -53 -31 -26 0 -99 83 -138 156 l-31
58 86 63 c47 35 90 63 95 63 4 0 44 -27 88 -60z m-82 -570 c9 -76 2 -105 -20
-83 -8 8 -9 37 -4 95 9 94 11 93 24 -12z m24 -151 c16 -26 1 -49 -33 -49 -16
0 -30 2 -30 4 0 2 -3 11 -6 19 -7 18 23 49 44 45 8 -2 19 -10 25 -19z m-161
-36 l118 -28 0 -119 c0 -93 -3 -116 -12 -108 -7 5 -47 22 -88 38 -64 24 -90
28 -180 28 l-105 1 34 100 c18 55 39 103 45 107 21 14 71 9 188 -19z m493 -90
l32 -101 -76 -1 c-71 0 -135 -13 -264 -54 l-48 -15 3 116 3 116 30 8 c75 19
194 36 239 35 l49 -2 32 -102z m-529 -134 c38 -12 91 -32 117 -46 l48 -24 62
25 c104 41 178 59 253 60 78 1 89 -3 80 -31 -5 -15 -15 -18 -69 -15 -78 4
-177 -18 -261 -59 l-64 -31 -104 48 c-100 48 -106 49 -193 49 -82 -1 -104 5
-105 27 0 24 153 22 236 -3z"/>
<path d="M476 245 c-8 -32 -1 -45 25 -45 12 0 23 10 30 26 11 31 12 30 -22 39
-23 6 -27 3 -33 -20z"/>
</g>
</svg>
