<?xml version="1.0" standalone="no"?>
<!DOCTYPE svg PUBLIC "-//W3C//DTD SVG 20010904//EN"
 "http://www.w3.org/TR/2001/REC-SVG-20010904/DTD/svg10.dtd">
<svg version="1.0" xmlns="http://www.w3.org/2000/svg"
 width="300.000000pt" height="300.000000pt" viewBox="0 0 300.000000 300.000000"
 preserveAspectRatio="xMidYMid meet">

<g transform="translate(0.000000,300.000000) scale(0.100000,-0.100000)"
fill="#111827" stroke="none">
<path d="M1460 2890 c-14 -5 -77 -25 -140 -45 -243 -78 -427 -169 -595 -295
-154 -116 -367 -351 -501 -554 l-39 -59 -3 -133 c-5 -157 11 -360 39 -499 53
-265 177 -521 390 -807 l80 -106 117 -42 c282 -100 479 -134 737 -128 217 6
352 31 607 114 l167 55 64 82 c253 325 383 619 427 967 14 119 24 394 16 460
-6 48 -18 70 -96 181 -286 400 -567 606 -1043 763 -173 58 -185 60 -227 46z
m145 -523 c3 -12 -3 -100 -13 -195 -16 -155 -15 -209 3 -190 6 5 44 352 45
401 0 16 5 15 39 -10 69 -48 69 -51 33 -256 -35 -196 -37 -217 -23 -217 13 0
16 13 47 190 14 85 33 165 40 178 17 26 61 29 104 7 33 -17 38 -30 16 -38 -32
-13 -49 -67 -111 -367 -36 -172 -65 -318 -65 -323 0 -5 -19 9 -42 31 -24 23
-52 48 -62 55 -17 12 -18 23 -14 99 6 93 -1 118 -51 191 -16 24 -33 57 -37 73
l-7 28 -13 -36 c-7 -19 -26 -55 -43 -78 -39 -54 -52 -101 -40 -143 5 -17 9
-50 9 -72 0 -37 -6 -45 -63 -97 l-64 -56 -62 306 c-67 326 -78 363 -113 391
l-22 18 32 17 c41 21 85 20 104 -1 8 -10 27 -88 43 -181 16 -90 35 -171 42
-180 11 -15 12 -14 13 9 0 15 -13 101 -30 192 -16 92 -30 175 -30 186 0 17 88
106 96 98 2 -2 12 -91 23 -199 10 -109 22 -202 26 -208 20 -33 21 22 4 185
-10 99 -19 184 -19 189 0 5 23 31 52 57 l52 48 48 -41 c26 -22 50 -50 53 -61z
m-39 -509 c20 -45 15 -69 -28 -130 l-33 -46 -38 56 c-45 67 -44 89 5 165 l31
49 23 -29 c12 -15 30 -45 40 -65z m960 -231 c81 -159 44 -242 -122 -280 -55
-13 -86 -37 -47 -37 20 0 114 23 147 36 17 7 18 4 12 -26 -14 -73 -57 -108
-149 -125 -33 -6 -62 -16 -65 -23 -6 -19 66 -13 146 12 35 11 29 -29 -11 -69
-36 -36 -89 -55 -155 -55 -31 0 -42 -4 -39 -12 4 -14 59 -17 120 -6 47 9 49
-8 7 -56 -35 -39 -71 -54 -150 -60 -30 -2 -56 -9 -58 -16 -3 -9 15 -11 71 -8
l76 3 -17 -29 c-52 -88 -245 -101 -480 -31 -49 15 -63 35 -24 35 9 0 44 13 77
29 157 75 191 192 126 433 -46 170 -44 216 11 244 39 20 59 16 206 -42 137
-53 190 -59 227 -24 34 32 40 75 21 165 -9 42 -16 82 -16 89 0 13 38 -50 86
-147z m-1972 59 c-19 -91 -13 -134 21 -166 38 -35 91 -30 230 25 65 25 131 49
146 52 39 8 85 -21 99 -61 12 -37 11 -42 -31 -195 -31 -113 -38 -215 -17 -282
23 -80 107 -148 218 -180 l45 -12 -58 -18 c-235 -74 -437 -63 -489 27 l-17 29
76 -3 c56 -3 74 -1 71 8 -2 7 -28 14 -58 16 -79 6 -115 21 -150 60 -42 48 -40
65 8 56 60 -11 115 -8 119 6 3 8 -8 12 -39 12 -90 0 -169 42 -182 96 -4 15 -6
28 -4 29 2 2 30 -3 63 -11 75 -17 108 -18 103 -2 -3 7 -32 17 -65 23 -75 14
-107 34 -133 85 -25 50 -26 75 -2 65 31 -12 126 -35 145 -35 24 0 17 24 -9 28
-62 10 -128 36 -159 63 -43 38 -52 80 -32 147 15 51 106 227 113 219 2 -2 -3
-39 -12 -81z m928 -43 c17 -39 38 -50 38 -20 0 7 10 28 22 47 l23 35 5 -80 c7
-97 28 -145 106 -235 31 -36 66 -86 78 -113 l21 -47 36 24 c57 39 73 84 63
175 -17 158 -10 178 67 188 l44 6 -28 -32 c-37 -44 -36 -106 4 -241 39 -135
44 -245 12 -305 -39 -74 -98 -115 -201 -139 -39 -9 -78 -28 -113 -54 -67 -49
-131 -82 -162 -82 -24 0 -94 40 -160 92 -22 18 -62 36 -99 44 -206 48 -260
173 -189 435 40 148 41 206 4 250 l-28 32 44 -6 c77 -10 85 -33 67 -194 -8
-67 -7 -75 17 -115 14 -24 39 -51 56 -61 30 -18 31 -18 37 0 12 41 37 81 84
137 85 99 103 137 108 232 5 92 13 97 44 27z m-76 -88 c-6 -32 -58 -109 -126
-185 l-31 -35 7 40 c10 67 50 142 100 191 50 48 60 46 50 -11z m289 -34 c31
-42 75 -165 63 -176 -2 -3 -29 25 -59 60 -58 70 -99 145 -99 183 l0 23 31 -22
c17 -12 46 -42 64 -68z m-349 -771 c32 -6 80 -20 107 -32 l47 -21 0 -55 c0
-48 -2 -53 -17 -47 -88 39 -134 49 -223 49 -89 1 -100 -1 -176 -36 -44 -21
-96 -39 -115 -40 -37 -3 -38 -2 -18 75 9 35 12 37 49 37 21 0 70 12 107 26 71
27 150 52 169 53 6 1 37 -4 70 -9z m553 -25 c49 -19 108 -37 131 -41 45 -7 51
-16 64 -88 l7 -39 -39 7 c-22 3 -78 23 -124 43 -78 35 -89 37 -183 37 -95 0
-136 -9 -227 -49 -16 -6 -18 -1 -18 48 l0 55 83 26 c151 47 188 47 306 1z
m-592 -95 c39 -5 100 -21 135 -35 l63 -25 50 19 c80 32 135 43 210 44 60 0 83
-5 155 -37 46 -21 107 -40 135 -43 50 -5 84 -30 85 -61 0 -22 -84 -4 -195 40
-136 55 -221 61 -319 24 -86 -33 -123 -33 -217 0 -104 36 -183 31 -304 -19
-89 -36 -189 -62 -205 -52 -5 3 -1 19 8 35 14 24 24 30 51 30 19 0 72 16 119
37 71 30 121 47 152 52 3 0 37 -4 77 -9z"/>
<path d="M1492 1566 c-6 -13 -16 -43 -22 -65 -6 -23 -15 -39 -20 -36 -6 3 -15
-7 -21 -22 -6 -15 -28 -64 -50 -108 -51 -105 -58 -164 -27 -225 13 -25 38 -55
56 -67 31 -21 34 -21 62 -5 26 15 31 15 63 0 35 -17 36 -17 75 11 50 37 65 75
60 154 -3 55 -11 76 -63 167 -36 64 -64 125 -70 159 -13 61 -26 73 -43 37z
m86 -193 c74 -115 92 -206 52 -270 -27 -46 -53 -57 -94 -42 -27 10 -40 10 -65
-1 -26 -10 -35 -10 -56 4 -73 48 -80 135 -21 248 21 40 42 84 46 98 7 24 9 22
31 -25 19 -41 24 -66 24 -137 0 -77 1 -83 12 -57 27 64 26 96 -3 177 -26 74
-27 82 -14 126 l13 48 22 -60 c12 -33 36 -82 53 -109z"/>
<path d="M1460 995 c-6 -14 -10 -35 -10 -46 0 -11 -7 -31 -17 -45 -15 -24 -15
-27 4 -52 11 -15 32 -34 46 -42 24 -13 28 -13 53 6 43 32 49 47 37 91 -7 21
-15 54 -20 73 -8 31 -13 35 -46 38 -32 3 -38 0 -47 -23z m82 -40 c3 -22 9 -49
13 -60 7 -23 -27 -75 -49 -75 -7 0 -23 11 -36 24 -16 18 -21 32 -16 50 3 15 9
38 12 54 11 50 13 53 41 50 24 -3 29 -9 35 -43z"/>
</g>
</svg>
