<?xml version="1.0" standalone="no"?>
<!DOCTYPE svg PUBLIC "-//W3C//DTD SVG 20010904//EN"
 "http://www.w3.org/TR/2001/REC-SVG-20010904/DTD/svg10.dtd">
<svg version="1.0" xmlns="http://www.w3.org/2000/svg"
 width="234.000000pt" height="300.000000pt" viewBox="0 0 234.000000 300.000000"
 preserveAspectRatio="xMidYMid meet">

<g transform="translate(0.000000,300.000000) scale(0.100000,-0.100000)"
fill="#111827" stroke="none">
<path d="M1705 2968 c-73 -38 -192 -79 -300 -104 -63 -15 -118 -19 -260 -18
-162 0 -190 3 -277 26 -54 15 -143 48 -199 75 l-102 47 -16 -24 c-8 -14 -49
-60 -90 -102 -112 -117 -258 -211 -393 -254 -32 -10 -58 -23 -58 -29 0 -7 9
-38 20 -69 51 -149 65 -250 65 -466 0 -214 -16 -331 -65 -492 -38 -126 -35
-382 6 -543 20 -76 88 -222 149 -317 65 -100 199 -230 327 -315 59 -40 181
-108 270 -151 90 -44 213 -113 274 -154 l112 -74 53 43 c30 24 122 78 204 120
184 93 368 200 456 264 75 56 209 191 258 262 54 79 128 245 157 352 24 89 27
119 28 265 0 178 -9 252 -56 460 -29 123 -32 151 -32 310 -1 191 15 282 74
437 l28 71 -62 22 c-197 72 -379 201 -472 336 -21 30 -38 54 -38 54 -1 -1 -28
-15 -61 -32z m-949 -438 c1 -48 6 -67 30 -102 16 -23 33 -48 37 -55 6 -10 -28
-13 -167 -13 l-175 0 61 103 c33 56 65 108 70 115 7 7 36 12 77 12 l66 0 1
-60z m354 -55 l0 -115 -34 0 c-30 0 -40 8 -86 67 -74 93 -73 97 28 101 l82 3
0 29 c0 17 2 30 5 30 3 0 5 -52 5 -115z m677 8 c32 -59 60 -111 61 -115 2 -4
-55 -8 -127 -8 l-131 0 0 63 c0 35 -7 86 -15 113 -8 27 -15 50 -15 52 0 1 38
2 84 2 l85 0 58 -107z m-414 25 c21 -11 37 -48 37 -88 0 -54 -7 -60 -72 -60
-58 0 -60 1 -54 23 3 12 6 50 6 84 l0 63 33 -7 c17 -3 40 -10 50 -15z m-949
-128 c31 -77 14 -172 -31 -178 -37 -5 -57 38 -51 111 9 107 52 142 82 67z
m1542 -17 c7 -10 14 -28 14 -41 0 -13 4 -20 10 -17 6 3 10 1 10 -5 0 -8 9 -10
26 -6 24 6 26 5 22 -18 -4 -20 -1 -26 13 -26 12 0 16 -5 13 -14 -7 -19 -40 -9
-70 20 -42 43 -113 29 -132 -26 -12 -34 -36 -39 -52 -11 -15 28 -13 33 11 26
21 -7 22 -1 1 54 -4 10 2 12 26 6 27 -5 32 -4 32 11 0 16 1 16 15 -2 14 -18
14 -18 15 8 0 56 21 74 46 41z m-236 -159 l0 -135 -37 3 c-34 3 -38 7 -58 55
-11 28 -35 65 -52 82 -32 30 -32 31 -18 71 21 61 21 60 96 60 l69 0 0 -136z
m-846 92 c33 -44 33 -47 -4 -40 -49 10 -97 -5 -136 -41 -34 -33 -36 -38 -31
-82 2 -27 7 -55 9 -63 3 -8 3 -12 1 -7 -3 4 -29 7 -59 7 l-54 0 0 130 0 130
124 0 124 0 26 -34z m226 2 c0 -17 -1 -29 -3 -27 -2 2 -11 16 -20 32 -17 26
-17 27 3 27 16 0 20 -7 20 -32z m280 25 c0 -17 -39 -66 -66 -84 -16 -10 -32
-19 -36 -19 -5 0 -8 25 -8 55 l0 55 55 0 c30 0 55 -3 55 -7z m-1094 -84 c17
-14 58 -89 52 -94 -2 -2 -23 21 -46 51 -23 29 -47 54 -53 54 -6 0 4 -17 23
-37 40 -45 82 -112 75 -119 -9 -9 -64 25 -87 53 -23 30 -50 87 -50 108 0 16
62 4 86 -16z m254 16 c0 -25 -29 -88 -53 -113 -20 -22 -68 -52 -82 -52 -12 0
37 82 72 120 19 22 30 40 24 40 -6 0 -30 -25 -53 -54 -23 -30 -44 -53 -46 -51
-6 5 35 80 52 94 13 11 57 28 79 30 4 1 7 -6 7 -14z m1450 -15 c17 -18 38 -30
53 -30 25 0 37 -16 37 -51 0 -12 -7 -19 -20 -19 -11 0 -20 7 -20 15 0 13 -4
14 -20 5 -16 -9 -20 -8 -20 5 0 19 -14 19 -30 0 -12 -14 -15 -14 -30 0 -9 8
-20 12 -23 8 -10 -10 -8 -25 2 -19 5 3 14 -1 21 -9 11 -14 15 -14 31 1 13 12
19 13 19 4 0 -7 8 -10 20 -7 11 3 20 1 20 -4 0 -5 9 -9 20 -9 29 0 25 -24 -10
-53 -36 -31 -60 -26 -80 16 -9 18 -32 41 -55 54 -52 28 -53 28 -57 -4 -4 -34
-32 -38 -36 -5 -4 28 14 52 39 52 12 0 19 7 19 20 0 28 35 60 66 60 16 0 37
-12 54 -30z m-1069 -110 l32 0 -6 -51 c-17 -137 -106 -192 -172 -105 -38 50
-43 97 -15 150 l24 43 53 -18 c29 -11 67 -19 84 -19z m620 0 l32 0 -6 -51 c-4
-27 -17 -69 -29 -92 -41 -75 -104 -74 -155 2 -29 43 -29 85 -1 137 l22 41 53
-18 c29 -11 67 -19 84 -19z m364 0 c37 -18 54 -39 55 -66 0 -22 40 -41 60 -29
6 4 10 -5 10 -19 0 -17 6 -26 16 -26 9 0 14 -6 12 -12 -9 -25 -39 -19 -67 11
-39 41 -90 43 -120 5 -12 -15 -21 -33 -21 -40 0 -21 -38 -17 -50 5 -14 27 -13
30 10 24 23 -6 23 -8 10 36 -9 32 -9 33 17 26 17 -4 29 -1 35 7 6 10 10 10 18
-2 8 -12 10 -12 10 5 0 11 3 31 6 45 l5 25 -13 -23 c-8 -12 -17 -19 -21 -16
-4 4 -7 0 -7 -9 0 -22 -13 -21 -34 2 -16 18 -16 19 9 25 21 5 25 11 20 28 -4
11 -3 19 1 16 5 -2 23 -10 39 -18z m-805 -25 c0 -30 -3 -35 -25 -35 l-24 0 22
35 c12 19 23 34 25 35 1 0 2 -16 2 -35z m-570 -2 c0 -54 -80 -163 -119 -163
-17 0 6 50 49 108 22 28 36 52 32 52 -5 0 -27 -25 -50 -56 -44 -60 -55 -58
-23 4 17 34 39 52 81 65 26 9 30 7 30 -10z m-261 -11 c18 -10 45 -38 59 -62
l25 -45 -54 53 c-30 28 -59 52 -64 52 -6 0 4 -11 21 -24 35 -28 90 -104 81
-112 -8 -9 -42 4 -72 27 -21 18 -75 105 -75 124 0 12 47 4 79 -13z m711 -26
c0 -3 -4 -8 -10 -11 -5 -3 -10 -1 -10 4 0 6 5 11 10 11 6 0 10 -2 10 -4z
m1001 -85 c16 -16 42 -31 57 -33 22 -2 28 -8 30 -35 3 -28 0 -33 -17 -33 -12
0 -21 5 -21 11 0 6 -7 8 -15 5 -9 -3 -18 1 -22 10 -5 13 -8 13 -24 -2 -18 -16
-20 -16 -38 0 -18 17 -20 17 -30 -1 -8 -15 -13 -16 -30 -5 -28 16 -29 16 -33
-15 -4 -37 -32 -37 -36 0 -3 24 2 30 27 40 17 6 31 17 31 23 0 6 9 23 21 38
27 35 63 34 100 -3z m-1447 -38 c-9 -39 -33 -84 -58 -111 -21 -24 -76 -57 -76
-47 0 14 45 93 72 128 16 20 27 37 23 37 -7 0 -52 -51 -77 -89 -24 -36 -23 -9
2 39 21 42 60 69 98 70 19 0 22 -4 16 -27z m244 -3 c18 -29 111 -29 138 1 16
17 20 18 29 6 6 -8 46 -30 88 -47 56 -24 79 -39 82 -54 2 -12 9 -54 15 -93 16
-100 32 -95 55 15 10 48 23 92 29 98 6 7 40 24 76 40 36 16 70 35 77 44 11 13
14 12 28 -7 13 -19 26 -23 70 -23 44 0 57 4 70 23 15 21 17 21 29 5 7 -10 46
-32 86 -48 41 -17 75 -32 77 -34 8 -7 40 -216 33 -218 -3 -2 -18 -42 -34 -89
-15 -49 -40 -102 -57 -123 -27 -31 -36 -36 -75 -36 -52 0 -59 17 -9 22 46 4
45 22 -1 25 -51 3 -56 13 -6 13 23 0 42 5 42 10 0 6 -18 10 -40 10 -22 0 -40
5 -40 10 0 6 18 10 40 10 22 0 40 5 40 10 0 6 -18 10 -41 10 -25 0 -38 4 -34
10 4 6 25 10 47 8 33 -2 45 3 64 26 21 24 22 29 10 42 -20 20 -23 18 -30 -20
-6 -33 -9 -35 -54 -38 l-47 -3 -2 -52 c-1 -46 1 -52 20 -55 16 -3 10 -8 -25
-20 -25 -9 -49 -14 -52 -10 -3 3 -6 49 -6 103 l0 98 85 27 c47 16 85 32 85 37
0 5 -8 6 -17 2 -47 -19 -104 -37 -108 -33 -4 4 -25 196 -25 228 0 26 -38 22
-44 -5 -2 -11 -8 -60 -12 -110 -3 -49 -10 -100 -15 -112 -7 -18 -4 -22 14 -25
21 -3 22 -8 25 -110 l3 -107 -47 14 c-54 16 -66 25 -35 25 20 0 22 4 19 53
l-3 52 -47 3 -48 3 0 55 c0 53 1 55 23 49 17 -5 19 -4 7 4 -8 6 -23 41 -32 78
l-16 68 5 -85 c4 -77 3 -87 -16 -107 l-21 -22 24 -28 c19 -22 31 -27 64 -25
22 2 43 -2 47 -8 4 -6 -7 -10 -29 -10 -19 0 -38 -4 -41 -10 -4 -6 10 -10 34
-10 23 0 41 -4 41 -10 0 -5 -18 -10 -41 -10 -24 0 -38 -4 -34 -10 3 -5 22 -10
42 -10 44 0 39 -9 -8 -14 -19 -2 -38 -4 -42 -5 -5 0 -5 -5 -2 -11 3 -5 22 -10
41 -10 19 0 34 -4 34 -10 0 -5 -17 -10 -39 -10 -66 0 -106 46 -145 167 -9 28
-24 54 -32 57 -8 3 -12 11 -8 17 4 7 1 10 -7 7 -7 -2 -27 -46 -44 -96 -40
-116 -70 -152 -132 -152 -53 0 -57 18 -5 22 47 4 44 22 -5 26 -52 4 -55 12 -5
12 23 0 42 5 42 10 0 6 -18 10 -40 10 -22 0 -40 5 -40 10 0 6 18 10 40 10 22
0 40 5 40 10 0 6 -18 10 -41 10 -25 0 -38 4 -34 10 4 6 24 10 46 8 31 -1 45 4
66 24 24 24 25 28 10 42 -22 22 -24 21 -31 -18 -6 -33 -9 -35 -54 -38 l-46 -3
-2 -52 c-2 -46 0 -52 19 -55 17 -3 10 -8 -25 -20 -25 -9 -49 -14 -52 -10 -3 3
-6 49 -6 103 l0 97 83 28 c87 28 93 31 86 39 -3 2 -29 -4 -57 -15 -29 -11 -56
-20 -61 -20 -9 0 -12 24 -27 182 -5 56 -9 66 -25 65 -22 -1 -25 -16 -35 -132
-3 -49 -10 -100 -15 -112 -7 -19 -5 -23 12 -23 27 0 30 -13 27 -122 l-3 -95
-50 15 c-44 13 -47 16 -25 21 22 6 24 11 21 51 -1 25 -5 48 -8 52 -2 5 -24 8
-49 8 l-44 0 0 56 c0 53 1 55 23 49 20 -6 20 -6 5 6 -9 8 -21 41 -27 73 -16
87 -23 82 -15 -12 5 -60 3 -86 -6 -97 -7 -8 -9 -15 -4 -16 5 0 1 -4 -10 -8
-17 -7 -17 -9 6 -36 22 -25 31 -29 72 -26 27 1 46 -2 46 -9 0 -5 -15 -10 -34
-10 -19 0 -38 -4 -41 -10 -4 -6 10 -10 34 -10 23 0 41 -4 41 -10 0 -5 -18 -10
-41 -10 -24 0 -38 -4 -34 -10 3 -5 22 -10 42 -10 44 0 39 -9 -7 -13 -47 -3
-52 -27 -6 -27 20 0 36 -4 36 -10 0 -5 -17 -10 -39 -10 -66 0 -106 45 -141
160 -10 30 -22 56 -28 58 -6 2 -22 -19 -36 -45 -25 -45 -90 -103 -102 -90 -7
7 39 93 73 137 l27 35 -27 -25 c-16 -13 -37 -40 -49 -58 -22 -36 -34 -37 -23
-2 12 38 65 89 99 96 33 6 33 6 52 100 10 52 23 98 29 102 5 4 39 21 75 37 36
17 69 36 73 43 11 17 20 15 35 -8z m-514 -4 c31 -13 86 -72 86 -91 0 -5 -15 5
-32 22 -38 35 -79 63 -92 63 -5 0 9 -13 30 -28 52 -38 110 -105 95 -110 -27
-9 -106 44 -138 92 -18 26 -30 52 -27 57 8 13 40 11 78 -5z m1670 -52 c6 -15
8 -15 26 1 13 12 20 14 20 5 0 -7 8 -10 20 -7 11 3 20 1 20 -4 0 -5 12 -12 26
-15 l25 -7 -27 -28 -27 -28 -16 31 c-21 41 -38 46 -52 14 -7 -14 -18 -26 -25
-26 -6 0 -14 -7 -17 -15 -5 -12 -12 -12 -43 -1 -44 15 -54 31 -23 39 16 4 20
11 16 26 -6 24 3 27 22 9 11 -11 15 -10 24 5 15 21 23 22 31 1z m66 -85 c0
-27 16 -39 51 -39 16 0 18 -5 13 -25 -5 -21 -3 -25 16 -25 19 0 20 -2 10 -15
-18 -22 -27 -19 -65 22 -43 47 -96 52 -126 13 -38 -50 -40 -52 -54 -40 -7 6
-15 20 -18 31 -4 16 -2 19 15 13 18 -5 20 -3 16 26 -5 30 -3 32 23 26 17 -3
30 -1 33 7 3 9 7 9 14 -1 7 -11 11 -7 16 14 12 45 26 58 42 37 7 -10 14 -30
14 -44z m-1466 -16 c-9 -39 -33 -84 -58 -111 -21 -24 -76 -57 -76 -47 0 14 52
105 76 134 14 18 24 34 21 37 -2 3 -25 -23 -51 -57 -49 -64 -59 -64 -26 1 21
42 60 69 98 70 19 0 22 -4 16 -27z m-260 -7 c31 -13 86 -72 86 -91 0 -5 -15 5
-32 21 -74 69 -98 73 -28 5 81 -79 82 -99 2 -59 -32 15 -58 39 -79 72 -18 26
-33 52 -33 57 0 14 46 11 84 -5z m1741 -73 c12 -20 28 -32 42 -33 26 0 47 -33
38 -59 -7 -22 -45 -17 -45 5 0 8 -6 11 -15 8 -9 -4 -15 0 -15 10 0 20 -9 20
-32 -1 -17 -15 -19 -15 -34 3 -14 18 -16 18 -26 2 -11 -15 -14 -15 -40 3 l-28
20 0 -30 c0 -24 -4 -31 -20 -31 -14 0 -20 7 -20 23 0 27 17 47 41 47 9 0 26
16 38 36 19 32 25 35 58 32 30 -2 42 -10 58 -35z m-1735 -78 c27 -14 80 -73
80 -89 0 -4 -21 11 -47 34 -77 68 -94 68 -20 0 37 -34 67 -66 67 -72 0 -16
-57 -1 -91 23 -30 21 -79 89 -79 109 0 15 57 12 90 -5z m1624 -38 c-3 -9 -10
-14 -15 -11 -5 3 -9 -4 -9 -15 0 -26 -18 -27 -36 -3 -19 24 -17 32 7 32 13 0
23 8 26 21 5 18 8 19 20 7 7 -8 11 -22 7 -31z m44 36 c0 -5 6 -24 15 -44 18
-40 39 -53 69 -43 16 5 18 2 12 -21 -6 -25 -5 -27 16 -20 16 5 21 4 18 -6 -7
-23 -48 -23 -69 0 -11 11 -30 23 -43 27 -39 10 -95 -30 -96 -67 0 -25 -26 -30
-44 -10 -22 24 -20 34 5 28 13 -4 19 -1 16 6 -20 54 -19 57 12 57 17 0 31 5
31 11 0 5 4 8 9 5 5 -3 11 12 15 33 5 33 12 43 34 50 1 1 1 -2 0 -6z m52 -14
c0 -6 7 -8 16 -5 8 3 22 0 30 -8 7 -8 19 -16 26 -19 18 -6 0 -23 -34 -31 -17
-4 -28 -2 -28 4 0 5 -6 10 -14 10 -14 0 -29 37 -20 52 8 12 24 10 24 -3z
m-773 -169 l58 -79 108 -37 107 -36 -37 -51 c-20 -29 -49 -68 -65 -88 -27 -35
-28 -42 -28 -144 0 -81 -3 -106 -12 -103 -7 3 -55 18 -105 33 l-93 28 -92 -27
c-50 -16 -98 -30 -105 -33 -10 -4 -13 17 -13 100 l0 105 -58 79 c-32 43 -61
83 -65 90 -5 8 25 22 95 45 l102 33 64 83 c36 45 68 82 73 82 4 0 33 -36 66
-80z m-682 38 c-11 -52 -52 -114 -90 -138 -20 -12 -38 -20 -41 -18 -6 6 43 97
65 123 10 11 22 27 26 35 17 31 -36 -25 -65 -68 -31 -47 -38 -45 -19 5 19 52
67 91 112 92 16 1 18 -4 12 -31z m1459 -3 c13 -14 34 -25 49 -25 27 0 47 -24
47 -54 0 -21 -36 -21 -44 0 -5 13 -9 14 -21 4 -12 -10 -15 -9 -15 4 0 20 -9
20 -32 0 -14 -14 -20 -15 -33 -4 -13 11 -18 10 -29 -5 -10 -14 -17 -15 -34 -6
-29 15 -29 15 -24 -19 4 -25 1 -30 -17 -30 -33 0 -30 57 4 72 14 6 25 18 25
27 0 60 81 83 124 36z m-1672 -44 c52 -55 48 -73 -6 -23 -24 22 -54 45 -67 52
-13 7 9 -17 49 -54 39 -38 72 -72 72 -76 0 -13 -71 10 -102 32 -26 18 -78 94
-78 113 0 4 21 5 47 2 39 -4 54 -12 85 -46z m1695 -49 c13 10 17 10 20 1 3 -7
13 -13 24 -13 30 0 22 -25 -18 -60 l-36 -32 -19 35 c-25 50 -35 53 -58 15 -11
-18 -20 -28 -20 -23 0 6 -7 1 -15 -9 -14 -19 -15 -19 -35 -1 -25 23 -25 31 -1
38 15 3 18 11 14 27 -5 21 -4 21 17 10 19 -10 24 -10 32 4 8 14 12 15 24 5 12
-10 18 -9 32 5 15 15 17 15 20 1 3 -13 6 -14 19 -3z m-1302 -9 c-40 -95 -48
-127 -52 -208 -9 -157 42 -292 151 -400 256 -256 666 -150 788 203 19 54 23
87 22 172 -1 101 -7 129 -49 233 -5 12 -2 17 9 17 35 0 76 -138 76 -255 0
-299 -233 -545 -514 -545 -139 0 -256 50 -356 150 -109 109 -160 235 -160 395
0 128 36 255 72 255 15 0 18 -4 13 -17z m-167 -40 c-16 -60 -49 -112 -86 -135
-18 -11 -35 -18 -38 -15 -7 7 38 92 72 137 l27 35 -34 -36 c-19 -19 -44 -48
-57 -65 l-22 -29 15 40 c20 49 41 74 80 91 49 22 55 19 43 -23z m1430 -18 c7
-14 12 -31 12 -36 0 -16 27 -39 45 -39 12 0 16 -6 12 -20 -4 -15 0 -20 15 -20
11 0 18 -5 16 -12 -6 -16 -58 -23 -58 -8 0 25 -49 60 -84 60 -28 0 -41 -7 -65
-37 -25 -31 -32 -34 -45 -23 -22 18 -21 43 2 36 15 -5 17 -1 14 29 -4 34 -4
35 27 29 23 -5 31 -3 31 7 0 12 2 12 9 0 7 -10 10 -8 16 10 8 27 24 49 35 49
4 0 12 -11 18 -25z m-1671 -12 c13 -10 34 -33 46 -52 20 -33 18 -32 -43 17
-35 29 -66 49 -69 47 -3 -3 6 -13 20 -22 36 -25 109 -99 109 -111 0 -13 -52 1
-86 23 -30 19 -84 92 -84 113 0 20 75 10 107 -15z m1678 -98 c14 -13 25 -28
25 -33 0 -5 13 -12 29 -15 31 -6 45 -29 36 -58 -8 -23 -33 -25 -41 -4 -4 8
-12 15 -20 15 -8 0 -14 7 -14 15 0 14 -3 13 -25 -1 -24 -16 -27 -16 -40 2 -14
18 -15 18 -26 1 -10 -17 -13 -17 -34 -3 -32 21 -35 20 -35 -9 0 -18 -5 -25
-20 -25 -14 0 -20 7 -20 23 0 29 18 47 47 47 14 0 23 6 23 15 0 24 37 55 65
55 14 0 37 -11 50 -25z m-1415 1 c0 -30 -32 -102 -58 -129 -26 -28 -82 -63
-82 -52 0 14 45 93 73 128 16 21 27 40 24 43 -2 3 -25 -23 -51 -57 -48 -64
-59 -64 -27 0 20 38 51 65 86 74 33 8 35 8 35 -7z m-228 -76 c46 -49 51 -76 6
-33 -38 35 -79 63 -91 63 -5 0 13 -18 41 -39 65 -52 100 -95 79 -99 -41 -8
-120 56 -156 126 -11 21 -10 22 35 22 42 0 51 -4 86 -40z m1568 -20 c9 13 12
13 21 -3 8 -13 14 -15 30 -7 14 8 19 7 19 -1 0 -6 8 -9 19 -6 12 3 22 -1 25
-9 3 -8 12 -14 21 -14 42 0 -14 -53 -76 -72 -50 -14 -110 2 -138 38 -23 29
-20 44 10 44 12 0 19 7 19 20 0 18 2 19 20 8 17 -11 22 -10 30 2z m-1365 -137
c29 -108 89 -216 158 -287 34 -35 71 -68 82 -74 11 -6 18 -13 15 -15 -3 -3
-50 -10 -105 -16 l-100 -10 -39 42 c-43 47 -241 309 -269 356 l-18 31 36 0
c38 0 103 -28 124 -54 19 -23 31 -20 31 8 0 23 43 86 59 86 5 0 16 -30 26 -67z
m1291 -10 c7 -39 12 -40 48 -12 15 12 42 25 59 29 18 4 42 10 55 14 13 5 22 3
22 -3 0 -15 -120 -181 -226 -315 -77 -97 -88 -107 -112 -102 -15 3 -63 8 -107
12 -78 7 -79 7 -55 23 113 73 207 221 250 390 l11 43 25 -22 c13 -13 27 -38
30 -57z m-843 -409 c43 -14 127 -78 116 -88 -2 -2 -47 7 -99 20 -106 27 -323
44 -334 26 -4 -7 21 -12 71 -17 186 -14 353 -45 353 -64 0 -17 -112 -41 -188
-41 -92 0 -156 18 -219 61 -36 25 -91 95 -82 103 9 8 220 24 274 20 33 -2 82
-11 108 -20z m565 14 c97 -8 132 -15 132 -25 0 -25 -72 -92 -128 -120 -74 -36
-203 -44 -298 -18 -35 9 -64 21 -64 25 0 19 163 49 353 65 42 4 77 11 77 16 0
24 -273 -1 -385 -35 -27 -9 -52 -16 -54 -16 -3 0 8 14 25 31 34 36 88 65 141
78 53 12 52 12 201 -1z m-349 -195 c31 -26 60 -50 65 -54 4 -4 -4 -15 -19 -25
l-27 -17 -38 44 -38 44 -45 -44 c-42 -41 -47 -42 -66 -29 -21 15 -20 16 39 72
34 31 64 56 67 56 3 0 31 -21 62 -47z"/>
<path d="M885 2089 c-9 -14 0 -22 18 -17 13 2 13 5 2 15 -10 9 -16 9 -20 2z"/>
<path d="M795 2080 c-18 -8 -17 -9 8 -9 15 -1 27 4 27 9 0 12 -8 12 -35 0z"/>
<path d="M843 1993 c9 -2 25 -2 35 0 9 3 1 5 -18 5 -19 0 -27 -2 -17 -5z"/>
<path d="M1507 2093 c-14 -13 -7 -23 16 -22 17 1 18 2 4 6 -9 2 -15 9 -12 14
7 10 1 12 -8 2z"/>
<path d="M1415 2080 c-18 -8 -17 -9 8 -9 15 -1 27 4 27 9 0 12 -8 12 -35 0z"/>
<path d="M1475 2020 c-3 -5 -1 -10 4 -10 6 0 11 5 11 10 0 6 -2 10 -4 10 -3 0
-8 -4 -11 -10z"/>
<path d="M1463 1993 c9 -2 23 -2 30 0 6 3 -1 5 -18 5 -16 0 -22 -2 -12 -5z"/>
<path d="M1160 1381 l0 -99 -37 -22 -38 -23 -83 28 c-45 16 -85 25 -89 21 -11
-11 9 -23 90 -51 66 -24 77 -31 72 -46 -4 -11 0 -32 8 -47 13 -28 12 -32 -34
-98 -33 -46 -45 -72 -38 -79 7 -7 12 -6 17 1 4 6 25 37 47 68 37 54 41 57 72
51 18 -3 41 -1 52 4 18 10 36 -9 112 -122 4 -5 12 -6 18 -3 7 5 -7 33 -38 80
-35 51 -47 77 -40 87 5 8 9 28 9 45 0 29 4 33 63 54 114 41 111 40 100 51 -8
8 -34 4 -91 -15 l-79 -27 -37 22 -36 21 0 99 c0 59 -4 99 -10 99 -6 0 -10 -40
-10 -99z"/>
</g>
</svg>
